<svg xmlns="http://www.w3.org/2000/svg" width="820" height="410" viewBox="0 0 820 410"><title>Finite cell cover and coordinate subdivision</title><desc>Schematic vector reconstruction of the page 17 diagram. Rectangle positions and freehand labels are approximate.</desc><rect width="820" height="410" fill="white"/><defs><marker id="arrow" markerWidth="8" markerHeight="8" refX="6" refY="3" orient="auto"><path d="M0 0L6 3L0 6" fill="black"/></marker></defs><g stroke-width="1.5"><rect x="45" y="65" width="145" height="184" fill="#ff7777" fill-opacity=".45" stroke="#ff5050"/><rect x="117" y="43" width="236" height="238" fill="#70e39b" fill-opacity=".5" stroke="#40b86b"/><rect x="63" y="210" width="271" height="146" fill="#779fe8" fill-opacity=".45" stroke="#4b75d5"/><rect x="90" y="105" width="219" height="212" fill="none" stroke="black" stroke-width="3"/></g><g font-family="serif" font-size="22" font-style="italic"><text x="27" y="57" fill="#e33030">I₁</text><text x="345" y="46" fill="#35a45a">I₃</text><text x="337" y="363" fill="#3d62c1">I₂</text><text x="77" y="381">I</text></g><path d="M365 178H417" stroke="black" stroke-width="2" marker-end="url(#arrow)"/><g transform="translate(420 0)"><rect x="45" y="65" width="145" height="184" fill="#ff7777" fill-opacity=".45"/><rect x="117" y="43" width="236" height="238" fill="#70e39b" fill-opacity=".5"/><rect x="63" y="210" width="271" height="146" fill="#779fe8" fill-opacity=".45"/><g stroke="#bfd646" stroke-width="1"><path d="M45 43V356M63 43V356M90 43V356M117 43V356M190 43V356M309 43V356M334 43V356M353 43V356M45 43H353M45 65H353M45 105H353M45 210H353M45 249H353M45 281H353M45 317H353M45 356H353"/></g><rect x="90" y="105" width="219" height="212" fill="none" stroke="black" stroke-width="3"/><text x="143" y="238" font-family="serif" font-style="italic" font-size="23">J₁</text></g><text x="35" y="402" font-family="sans-serif" font-size="12" fill="#555">Schematic reconstruction; source geometry and handwritten labels are approximate.</text></svg>